/* XPM */
static char *f449f04d740444feb57c12830a3f2c85CwPQRvJ6LIzvsVCw[] = {
/* columns rows colors chars-per-pixel */
"112 156 60 1 ",
"  c None",
". c black",
"X c #110000",
"o c #001100",
"O c #111100",
"+ c #111111",
"@ c #24110F",
"# c #172206",
"$ c #22330A",
"% c #332216",
"& c #222222",
"* c #22332F",
"= c #333332",
"- c #442222",
"; c #552222",
": c #55332E",
"> c #6B3335",
", c #2F4411",
"< c #365511",
"1 c #336611",
"2 c #3F4433",
"3 c #446611",
"4 c #447711",
"5 c #7C4436",
"6 c #447722",
"7 c #557722",
"8 c #444444",
"9 c #5A4442",
"0 c #505549",
"q c #616650",
"w c #776655",
"e c #556677",
"r c #727763",
"t c #85554B",
"y c #995544",
"u c #995555",
"i c #AA5544",
"p c #AA5555",
"a c #A86655",
"s c #BB7766",
"d c #CC776B",
"f c #558822",
"g c #668822",
"h c #669922",
"j c #778A66",
"k c #85AA2C",
"l c #92BB29",
"z c #99CC22",
"x c #8E8878",
"c c #CC8877",
"v c #7799AA",
"b c #A5998B",
"n c #AAAA88",
"m c #BBAA99",
"M c #99AAAA",
"N c #A3BBAE",
"B c #C6D7B4",
"V c #BBDDEE",
"C c #DDEECC",
"Z c #EEFFCC",
/* pixels */
"                                                                                                                ",
"                                                                                                                ",
"                                                                                                                ",
"                                                                                                                ",
"                                                                                                                ",
"                                                                                                                ",
"                                                                                                                ",
"                                                                                                                ",
"                                                                                                                ",
"                                                                                                                ",
"                                                                                                                ",
"                                                                                                                ",
"                                                                                                                ",
"                                                                                                                ",
"                                                                                                                ",
"                                                                                                                ",
"                                                                                                                ",
"                                                                                                                ",
"                                                   .........                                                    ",
"                                               .................                                                ",
"                                            .......................                                             ",
"                                          ...........................                                           ",
"                                        ............O$$$$$Oo...........                                         ",
"                                       .........#<46666666666<$o........                                        ",
"                                     .........,666666666666666663$.......                                       ",
"                                    ........,6666666666666666fggf64$......                                      ",
"                                   .......,66666666666666666lzzzzlh6<.......                                    ",
"                                  ......O366666666666666666gzzzzzzzlf3o.......                                  ",
"                                 ......$66666666666666666667lzzzzzzzlg<........                                 ",
"                                 .....,666666666666666666666flzzzzzl3O..........                                ",
"                                .....,666666666666666666666666glzzg.....0e0.....                                ",
"                                ....$666666666666666666666666666g,...0NVVVVN.....                               ",
"                               .....4666666666666666777777766661o..&NVVVVVVVe....                               ",
"                               ....$6666666666667ffhhhhhhhhhgf3...0VVVVVVVVVN....                               ",
"                              .....466666666667fhhhhhhhhhhhhhg...vVVVVVVVVVVV....                               ",
"                              ....#6666666666fhhhhhhhhhhhhhhh<..NVVVVVVve****....                               ",
"                              ....1666666667ghhhhhhhhhhhhhhhh,.*VVVVN0...........                               ",
"                             ....o666666667ghhhhhhhhhhhhhhhhh<..vVV0....o#$$#....                               ",
"                             ....,66666666ghhhhhhhhhhhhhhhhhhg........$36666<....                               ",
"                             ....36666666fhhhhhhhhhhhhhhhhhhhh7o....$46666666....                               ",
"                            ....o66666667hhhhhhhhhhhhhhhhhhhhhhh333gf66666666O....                              ",
"                            ....,6666666ghhhhhhhhhhhhhhhhhhhhhhhhhhhh3<<66666#....                              ",
"                            ....16666667hhhhhhhhhhhhhhhhhhhhhhhhf$#......#366$....                              ",
"                           .....6666666fhhhhhhhhhhhhhhhhhhhhhhh<...........$6,....                              ",
"                     ...   ....#6666666ghhhhhhhhhhhhhhhhhhhhhh$..orxNNZBjo..o$....                              ",
"                  .............,6666667hhhhhhhhhhhhhhhhhhhhhh,..0CZZZZZZZCq.......                              ",
"                 ..............3666666fhhhhhhhhhhhhhhhhhhhhhf..qZZZZZZZZZZZx......                              ",
"               ................6666666fhhhhhhhhhhhhhhhhhhhhh$.oCZZZZZZZZZZZZr.....                              ",
"               ......@@@......#6666666ghhhhhhhhhhhhhhhhhhhhh..jZZZZZZZZZZZZZCo....                              ",
"              .....:asssa9....$6666666ghhhhhhhhhhhhhhhhhhhhh..NZZZZZZZZZZZZZZ0....                              ",
"             .....5sssssssa@..<6666666hhhhhhhhhhhhhhhhhhhhhh..NZZZZZBo*CZZZZZj....                              ",
"             ....:sssssssss:..16666666hhhhhhhhhhhhhhhhhhhhhh..NZZZZZj..oCZZZZn....                              ",
"             ....asssssssss:..66666667hhhhhhhhhhhhhhhhhhhhhh..NZZZZZ0...NZZZZn....                              ",
"            ....%sscccdssss%..66666667hhhhhhhhhhhhhhhhhhhhhh..bZZZZZB#.qZZZZZj....                              ",
"            ....:sccccccdss@.O66666667hhhhhhhhhhhhhhhhhhhhhh#.2ZZZZZZZZZZZZZZ0....                              ",
"            ....:scccccccss@.O6666666fhhhhhhhhhhhhhhhhhhhhhh<..NZZZZZZZZZZZZB....                               ",
"            ....:sssdccccss..#6666666fhhhhhhhhhhhhhhhhhhhhhhhO.oCZZZZZZZZZZC*....                               ",
"            ....:ssssssddsa..$6666666ghhhhhhhhhhhhhhhhhhhhhhh7..*CZZZZZZZZB*......                              ",
"            ....:ssssssssst..<6666666hhhhhhhhhhhhhhhhhhhhhhhhh<..obZZZZZNro.......                              ",
"            ....:sdssssssst..<6666667hhhhhhhhhhhhhhhhhhhhhhhhhh<...#22#.....,1.....                             ",
"           .....accccccsss:..46666667hhhhhhhhhhhhhhhhhhhhhhhhh3O..........$466$....                             ",
"           ....@scccccccds:..6666666fhhhhhhhhhhhhhhhhhhhhhhhh<......$,<<3666666.....                            ",
"          .....usdccccccds:..6666666fhhhhhhhhhhhhhhhhhhhhhhh<...,33<hhh74##<166,....                            ",
"         .....9ssssssdccss:..6666666fhhhhhhhhhhhhhhhhhhhhhh3...3hg3,<3h7<.....##....                            ",
"         ....%ssssssssssss:..6666666fhhhhhhhhhhhhhhhhhhhhhgo..3h,......#<$o.........                            ",
"         ....assssssssssss:..663<<<$<333hhhhhhhhhhhhhhhhhh,..,h$.........o,#........                            ",
"        ....-sscccssssssss:..O............#,3fhhhhhhhhhhhh..og3....jr...............                            ",
"        ....5sscccccccsss5X........@..........O,7hhhhhhhh3..<g.....qj..j=..........                             ",
"        ....ssscccccccstX....%>5iiiiiiiy5:-@.....o<ghhhhh$..g<.....&r..rj.......                                ",
"        ....ssssdccccc:...@>iiiiiiiiiiiiiiiiy>-X....$fhhhO.#h#.........$q.......                                ",
"        ....sssssssss:..X5iiiiiiiiiiiiiiiiiiiiii5%....<hh..,h..................                                 ",
"        ....sssssssst..@yiiiiiiiiiiiiiiiiiiiiiiiiiy;...$h..,h...............                                    ",
"        ....tsssssssX.Xyiiiiiiiiiiiiiiiiiiiiiiiiiiiiy@..,..,h...............                                    ",
"        ....-sssssst..5iiiiiiiiiiiiiiiiiiiiiiiiiiiiiii@....,h....     .....                                     ",
"        .....asssss:.XiiiiiiiiiiiiiiiiiiiiiiiiiiiiiiiiyX...$h#....                                              ",
"         ....@sssss@.-iiiiiiiiiiiiiiiiiiiiiiiiiiiiiiiii5...oh<....                                              ",
"         .....-ssss..>iiiiiiiiiiiiiiiiiiiiiiiiiiiiiiiiii@...fg.....                                             ",
"          .....-ass..5iiiiiiiiiiiii5:;;;>yiiiiiiiiiiiiii>...$h,.....                                            ",
"           .....@ts..5iiiiiiiiiii>X......@yiiiiiiiiiiiiiy....fhO.....                                           ",
"            ......@..5iiiiiiiiii5....&&&..@iiiiiiiiiiiiii....Ohf.......                                         ",
"             ........5iiiiiiiiii>..xmmmmq..yiiiiiiiiiiiii.....$h7........                                       ",
"              .......>iiiiiiiiy@...nmmmmn..5iiiiiiiiiiiiy......#g7o............                                 ",
"               ......;iiiiiii5.....rmmmmm..>iiiiiiiiiiii>..r&....7g#.............                               ",
"                 ....@iiiiiiy@.....0mmmmm&.@5iiiiiiiiiiyX.+xmx&..ohh3#...........                               ",
"                  ...Xiiiiii%......&mmmmm....@5iiiiiiiy@.....&9...hhhh3$..........                              ",
"                  ....yiiii5..o,#..&mmmmm......X:5ii5;...........ohhhhg664<$$.....                              ",
"                  ....>iiii@..o66O.0mmmmm..3<o..........,g3<$O..$fhhhhh666666$....                              ",
"                  ....@iii5....66..0mmmmm..3hh3$o.....$fhhhhhhhhhhhhhhh766666<....                              ",
"                   ....yii@....OO..xmmmmm..<hhhhhg337hhhhhhhhhhhhhhhhhhf666661....                              ",
"                   ....>iy.........&+...............##$,37hhhhhhhhhhhhhg666666....                              ",
"                   ....@i>..&&&&&..........................$3hhhhhhhhhhh666666....                              ",
"                    ....5-.&mmmm&..#rmmmnw&..#00000=&&........,ghhhhhhhh766666o....                             ",
"                    ....%@.#mmmw...nmmmmmmm0..mmmmmmmmmmxq&.....3hhhhhhh766666O....                             ",
"                    .....X..qmm=.qmmmmmmmmmm+.qxxxxxnmmmmmmnq+...3hhhhhh766666O....                             ",
"                    .........+0&.0mmmmmmmmmm+..........&2qxmmm0..#hhhhhh766666#....                             ",
"                     .............xmmmmmmmmx................&90..#hhhhhh766666$....                             ",
"                     ..............xmmmmmmn+.=xxxxr....#.........,hhhhhh666666$....                             ",
"                     ....==.....$o..xmmmmm9.+nmmmmmb#..$h7<#O..o,hhhhhhf666666$....                             ",
"                     ....0mx9+.O61o..xmmmm..xmmmmmmmn#..<hhhhhhhhhhhhgf4466666$....                             ",
"                     ....&mmm=..61....bmmx.+nxxxmmmmmx...7hhhhhhhhhhg311146666$....                             ",
"                      ....mmm0..<.....2mmx.......0nmmmr..Ohhhhhhhhhh4111116666$....                             ",
"                      ....xmmr.....2b..mmx.........xmmm9..,hhhhhhhhh3111114666$....                             ",
"                      ....qmmn....2mm#.q2.....<<o...wmmn+..fhhhhhhhhg111114666$....                             ",
"                      ....=mmm=..+mmm#.........37,...xmmw..$hhhhhhhkl311114666o....                             ",
"                       ....mmmw..wmmq...X-tu5........&mmm&..fhhhhhhkl711116663....                              ",
"                       ....rmmw..xmb...-tuuuu@........qmmx..$hhhhhhklg1113666$....                              ",
"                       ....=mm0..br+..>uuuuuu@.&==&....#xm&..fhhhhhhlkf336664.....                              ",
"                       .....nmx..+....9uuuuuu@.&8888=+...wr..,hhhhh7hllh6666$....                               ",
"                        ....0mb.......uuuuuuu-..=88888=...0+.ohhhg766gkg6664.....                               ",
"                        .....n9...&..@uuuuuuut...&888888......3hf7666666666$....                                ",
"                         ....+...*&..9uuuuuuuu5X...=88888.....#766666666663.....                                ",
"                         ...........+uuuuuuuuuut%...=88888+....$$$<<466666#....                                 ",
"                          ..........-uuuuuuuuuuuu>..+888888...........#,6,.....                                 ",
"                          .....#n2..-uuuuuuuuuuuuu:..8888888..................                                  ",
"                           .....#b#.%uuuuuuuuut@%>:..=888888=..&mmxr0&........                                  ",
"                            .........tuuuuuuuu-......88888888&..wmmmmmnq......                                  ",
"                             ........%uuuuuuuu@.....*888888888+..&&qnmmmn=....                                  ",
"                              ........:uuuuuuu@.&8=88888888888=.....#nmmmn+....                                 ",
"                               ....&...:uuuuuu+.&88888888888888+.....2mmmmw....                                 ",
"                               ....=8...@tuuuu..*88888888888888=......mmmmx....                                 ",
"                               ....*88+...:uu9..=888888888888888.....&mmmmq....                                 ",
"                               ....+888&...X@...8888888888888888.....xmmmx.....                                 ",
"                                ....&==8=+.....=888888888888888*..+9bmmn0.....                                  ",
"                                ........&8=&+&88888888888888888..&mmmx9.......                                  ",
"                                 .........=8888888888888888888...90=.........                                   ",
"                                 ..........&88888888888888888...............                                    ",
"                                  ..........+88888888888888=..............                                      ",
"                                       .......=88888888888=.............                                        ",
"                                        .......+&*&&&=8888&..rx&.....                                           ",
"                                          .............*8=+=bmmmw....                                           ",
"                                           ................&mmmmm#...                                           ",
"                                            ........@X.....xmmmmm9....                                          ",
"                                            .....X>ppp>...&bmmmmn....                                           ",
"                                           .....@ypppppy-...&0x9.....                                           ",
"                                           ....@pppppppy;............                                           ",
"                                          .....ypppppp>X............                                            ",
"                                          ....>pppppt@.............                                             ",
"                                         .....ppppp5........ ...                                                ",
"                                         ....-pppppO......                                                      ",
"                                         ....5pppp5.....                                                        ",
"                                         ....ppppp:....                                                         ",
"                                         ....ppppp:....    ...........                                          ",
"                                         ...@ppppp5.....................                                        ",
"                                         ...Xppppp5......................                                       ",
"                                         ....pppppp............+&&........                                      ",
"                                         ....5ppppp%.......=0rMMMMMr=.....                                      ",
"                                         ....%pppt%....+0xMMMMMMMMMMMr.....                                     ",
"                                         .....5p;....8xMMMMMMMMMMMMMMM=....                                     ",
"                                          .....;...0bMMMMMMMMMMMMMMMMMx....                                     ",
"                                          .......+bMMMMMMMMMMMMMMMMMMMM....                                     ",
"                                           .........+&&&&&&&&&&&&&&&&&&....                                     ",
"                                            ...............................                                     ",
"                                             .............................                                      ",
"                                              ............................                                      ",
"                                                                                                                ",
"                                                                                                                "
};
