/* XPM */
static char *ccf8a53ebcf24c89a9666eed673414d1JKrPpw6vKO96LeW7[] = {
/* columns rows colors chars-per-pixel */
"115 152 61 1 ",
"  c None",
". c black",
"X c #001100",
"o c #111100",
"O c #111111",
"+ c #24110F",
"@ c #172205",
"# c #22330A",
"$ c #332219",
"% c #222222",
"& c #22332F",
"* c #333332",
"= c #442222",
"- c #552222",
"; c #55332F",
": c #6C3335",
"> c #2E4411",
", c #365511",
"< c #336611",
"1 c #334433",
"2 c #446611",
"3 c #447711",
"4 c #444433",
"5 c #744436",
"6 c #447722",
"7 c #557722",
"8 c #444444",
"9 c #5A4444",
"0 c #555544",
"q c #445550",
"w c #555950",
"e c #6B665B",
"r c #727763",
"t c #834941",
"y c #935547",
"u c #995555",
"i c #AA5544",
"p c #AA5555",
"a c #A86655",
"s c #BB7766",
"d c #CC776B",
"f c #558822",
"g c #668822",
"h c #669922",
"j c #778A66",
"k c #85AA2C",
"l c #92BB29",
"z c #99CC22",
"x c #8B8879",
"c c #CC8877",
"v c #7799AA",
"b c #999997",
"n c #AA9988",
"m c #AAAA88",
"M c #BBAA99",
"N c #99AAAA",
"B c #A3BBAE",
"V c #C6D7B4",
"C c #BBDDEE",
"Z c #DDEECC",
"A c #EEFFCC",
/* pixels */
"                                                                                                                   ",
"                                                                                                                   ",
"                                                                                                                   ",
"                                                                                                                   ",
"                                                                                                                   ",
"                                                                                                                   ",
"                                                                                                                   ",
"                                                                                                                   ",
"                                                                                                                   ",
"                                                                                                                   ",
"                                                                                                                   ",
"                                                                                                                   ",
"                                                                                                                   ",
"                                                                                                                   ",
"                                                     .........                                                     ",
"                                                 .................                                                 ",
"                                              .......................                                              ",
"                                            ...........................                                            ",
"                                          ............o#####oX...........                                          ",
"                                         .........@,36666666666,#X........                                         ",
"                                       .........>666666666666666662#.......                                        ",
"                                      ........>6666666666666666fggf63#......                                       ",
"                                     .......>66666666666666666lzzzzlh6,.......                                     ",
"                                    ......o266666666666666666gzzzzzzzlf2X.......                                   ",
"                                   ......#66666666666666666667lzzzzzzzlg,........                                  ",
"                                   .....>666666666666666666666flzzzzzl2o..........                                 ",
"                                  .....>666666666666666666666666glzzg.....qeq.....                                 ",
"                                  ....#666666666666666666666666666g>...qBCCCCB.....                                ",
"                                 .....366666666666666677777776666<X..%BCCCCCCCe....                                ",
"                                 ....#6666666666667ffhhhhhhhhhgf2...qCCCCCCCCCB....                                ",
"                                .....366666666667fhhhhhhhhhhhhhg...vCCCCCCCCCCC....                                ",
"                                ....@6666666666fhhhhhhhhhhhhhhh,..BCCCCCCve&&&&....                                ",
"                                ....<666666667ghhhhhhhhhhhhhhhh>.&CCCCBq...........                                ",
"                               ....X666666667ghhhhhhhhhhhhhhhhh,..vCCq....X@##@....                                ",
"                               ....>66666666ghhhhhhhhhhhhhhhhhhg........#26666,....                                ",
"                               ....26666666fhhhhhhhhhhhhhhhhhhhh7X....#36666666....                                ",
"                              ....X66666667hhhhhhhhhhhhhhhhhhhhhhh222gf66666666o....                               ",
"                              ....>6666666ghhhhhhhhhhhhhhhhhhhhhhhhhhhh2,,66666@....                               ",
"                              ....<6666667hhhhhhhhhhhhhhhhhhhhhhhhf#@......@266#....                               ",
"                             .....6666666fhhhhhhhhhhhhhhhhhhhhhhh,...........#6>....                               ",
"                      ...    ....@6666666ghhhhhhhhhhhhhhhhhhhhhh#..XrxBBAVjX..X#....                               ",
"                   ......... ....>6666667hhhhhhhhhhhhhhhhhhhhhh>..qZAAAAAAAZw.......                               ",
"                  ...............2666666fhhhhhhhhhhhhhhhhhhhhhf..wAAAAAAAAAAAx......                               ",
"                .................6666666fhhhhhhhhhhhhhhhhhhhhh#.XZAAAAAAAAAAAAr.....                               ",
"                ......+++.......@6666666ghhhhhhhhhhhhhhhhhhhhh..jAAAAAAAAAAAAAZX....                               ",
"               .....;asssa5.....#6666666ghhhhhhhhhhhhhhhhhhhhh..BAAAAAAAAAAAAAAq....                               ",
"              .....5sssssssa+...,6666666hhhhhhhhhhhhhhhhhhhhhh..BAAAAAVX&ZAAAAAj....                               ",
"              ....;sssssssssu...<6666666hhhhhhhhhhhhhhhhhhhhhh..BAAAAAj..XZAAAAm....                               ",
"              ....assssssssss+..66666667hhhhhhhhhhhhhhhhhhhhhh..BAAAAAq...BAAAAm....                               ",
"             ....$sscccdsssss+..66666667hhhhhhhhhhhhhhhhhhhhhh..bAAAAAV@.wAAAAAj....                               ",
"             ....;sccccccdsss..o66666667hhhhhhhhhhhhhhhhhhhhhh@.1AAAAAAAAAAAAAAq....                               ",
"             ....;scccccccssu..o6666666fhhhhhhhhhhhhhhhhhhhhhh,..BAAAAAAAAAAAAV....                                ",
"             ....;sssdccccss5..@6666666fhhhhhhhhhhhhhhhhhhhhhhho.XZAAAAAAAAAAZ&....                                ",
"             ....;ssssssddss;..#6666666ghhhhhhhhhhhhhhhhhhhhhhh7..&ZAAAAAAAAV&......                               ",
"             ....;ssssssssss+..,6666666hhhhhhhhhhhhhhhhhhhhhhhhh,..XbAAAAABrX.......                               ",
"             ....;sdssssssss+..,6666667hhhhhhhhhhhhhhhhhhhhhhhhhh,...@11@.....><.....                              ",
"            .....accccccssss;..36666667hhhhhhhhhhhhhhhhhhhhhhhhh2o..........#366#....                              ",
"            ....+scccccccdss;..6666666fhhhhhhhhhhhhhhhhhhhhhhhh,......#>,,2666666.....                             ",
"           .....usdccccccdss;..6666666fhhhhhhhhhhhhhhhhhhhhhhh,...>22,hhh73@@,<66>....                             ",
"          .....5ssssssdccsss;..6666666fhhhhhhhhhhhhhhhhhhhhhh2...2hg2>,2h7,.....@@....                             ",
"          ....$sssssssssssss;..6666666fhhhhhhhhhhhhhhhhhhhhhgX..2h>......@,#X.........                             ",
"          ....asssssssssssss;..662,,,#,222hhhhhhhhhhhhhhhhhh>..>h#.........X>@........                             ",
"         ....=sscccsssssssss;..o............@>2fhhhhhhhhhhhh..Xg2....jr...............                             ",
"         ....5sscccccccssss5.........+..........o>7hhhhhhhh2..,g.....wj..j*..........                              ",
"         ....ssscccccccssy.....$:5iiiiiiiy5;=+.....X,ghhhhh#..g,.....%r..rj.......                                 ",
"         ....ssssdcccccs;...+:iiiiiiiiiiiiiiiiy:=.....#fhhho.@h@.........#w.......                                 ",
"         ....ssssssssss;...5iiiiiiiiiiiiiiiiiiiiii5$....,hh..>h..................                                  ",
"         ....sssssssssy..+yiiiiiiiiiiiiiiiiiiiiiiiiiy-...#h..>h...............                                     ",
"         ....yssssssss...yiiiiiiiiiiiiiiiiiiiiiiiiiiiiy+..>..>h...............                                     ",
"         ....=sssssssy..5iiiiiiiiiiiiiiiiiiiiiiiiiiiiiii+....>h....     .....                                      ",
"         .....assssss;..iiiiiiiiiiiiiiiiiiiiiiiiiiiiiiiiy....#h@....                                               ",
"          ....+ssssss+.=iiiiiiiiiiiiiiiiiiiiiiiiiiiiiiiii5...Xh,....                                               ",
"          .....=sssss..:iiiiiiiiiiiiiiiiiiiiiiiiiiiiiiiiii+...fg.....                                              ",
"           .....=asss..5iiiiiiiiiiiiiiiiiiiiiiiiiiiiiiiiii:...#h>.....                                             ",
"            .....+yss..5iiiiiiiiiiiiiiiiiiiit;=+=tiiiiiiiiy....fho.....                                            ",
"             ......+5..5iiiiiiiiiiiiiiiiii:+......:iiiiiiii....ohf.......                                          ",
"              .........5iiiiiiiiiiy;---:y$....%4O..yiiiiiii.....#h7........                                        ",
"               ........:iiiiiiiiy+.........@rMMMm..=iiiiiiy......@g7X............                                  ",
"                .......-iiiiiiit....%%%....rMMMMM4.+iiiiii:..r%....7g@.............                                ",
"                  .....+iiiiiiy+...%9009O..*MMMMMe..iiiiiy..OxMx%..Xhh2@...........                                ",
"                  ......iiiiii$.............mMMMMx..iiiiy+.....%9...hhhh2#..........                               ",
"                  ......yiiii5..X>@o........eMMMMn..5it-...........Xhhhhg663,##.....                               ",
"                 ....O..:iiii+..X66666fhhh@.0MMMMM........>g2,#o..#fhhhhh666666#....                               ",
"                 ....e*.+iii5....666667hhh#.*MMMMM......#fhhhhhhhhhhhhhhh766666,....                               ",
"                .....ne..yii+....oo@##>222#.%MMMMM%.@27hhhhhhhhhhhhhhhhhhf66666<....                               ",
"               ......Mm..:iy................9MMMMM9...@@#>27hhhhhhhhhhhhhg666666....                               ",
"              .......em*.+i:..%%%%%.........4MMmx0*..........#2hhhhhhhhhhh666666....                               ",
"              .........O..t=.%MMMMMMMMxxxx4.%x*........%........>ghhhhhhhh766666X....                              ",
"              ...Oxx%.....$+.@MMMMMMMMMMMMe.....@409O..xMMxe%.....2hhhhhhh766666o....                              ",
"             ....4MMMne4......eMMMMMMMMMMMx...4nMMMMM4.*MMMMMmeO...2hhhhhh766666o....                              ",
"              ....mMMMMM%......O0xmMMMMnxe0..eMMMMMMMn...%4exMMM0..@hhhhhh766666@....                              ",
"              ....%MMMMM0...................4MMMMMMMMn........%90..@hhhhhh766666#....                              ",
"              .....4MMMMe..................OrMMMMMMMMr...@.........>hhhhhh666666#....                              ",
"               .....4MMMx..**.....####X....0MMMMMMMMM0...#h7,@o..X>hhhhhhf666666#....                              ",
"                .....eMMM..0Mx9O.o663o......xMMMMMMMM%....,hhhhhhhhhhhhgf3366666#....                              ",
"                 .....nMMO.%MMM*..6<....0m%..4nMMMMMM*.4...7hhhhhhhhhhg2<<<36666#....                              ",
"                  ....9MM4..MMM0..,...%nMMm%...*xMMMMe.%r..ohhhhhhhhhh3<<<<<6666#....                              ",
"                   ...%MM4..xMMr.....4MMMm4......OxMMn..%...>hhhhhhhhh2<<<<<3666#....                              ",
"                   ....4....eMMm....4MMMr....X>>...xMnO......fhhhhhhhhg<<<<<3666#....                              ",
"                  ..........*MMM*..OMMM9...X,hhhg#..x...+;...@hhhhhhhkl2<<<<3666X....                              ",
"                  ......=t$..MMMe..eMMe...>67hhg>X.....;uu:....>ghhhhkl7<<<<6662....                               ",
"                 .....;uuu;..rMMe..xMn...<6667#.......;uuuu......>ghhklg<<<2666#....                               ",
"                 ....=uuuuy..*MM0..nM4..,666>....O%..;uuuuu;......X2hhlkf226663.....                               ",
"                 ....=uuuuu+..mMx..xM@.X662o...%88%.+uuuuuuu$.......>6hllh6666#....                                ",
"                .....5uuuuu+..0Mn..9MO.@6<...O8888%.Ouuuuuuuu9$......X2gkg6663.....                                ",
"                ....+uuuuu=....mM@.OM%..>...%88888*..yuuuuuuuuuut;.....<66666#....                                 ",
"                ....5uuuuy.....0Me..ee.....*8888888..9uuuuuuuuuuuuy.....<6662.....                                 ",
"               ....$uuuuu;..8...xm...x....*88888888..5uuuuuuuuuu9;=..O...<66@....                                  ",
"               ....=uuuuu=.O8*..Ome..OO..*8***8888*..uuuuuuuuuu;.....8*...3>.....                                  ",
"               ....=uuuuu$.O88%..@m4..........%888*..uuuuuuuuuu=..OO*88*........                                   ",
"               ....$uuuuu=..888...@n9.........%888*..5uuuuuuuuu:..888888%.......                                   ",
"                ....yuuuu5...%88....e...%.....88888..+uuuuuuuuuy..&888888.......                                   ",
"                ....+uuuuuO...O88O...O9xme...O88888%..;uuuuuuuuu+.O888888O......                                   ",
"                .....;uuuuy9$..*88&..........&888888...$yuuuuuuu=.O888888O.9O.......                               ",
"                 .....;uuuuu9...8888%........88888888....;tuuuuu=.O888888..ee........                              ",
"                  .....%yuuu;...%888888*%%O..888888888%.....$;9;..O88888%...@.........                             ",
"                  ......O9uu+....888888888%..88888888888O.........888888...............                            ",
"                   .......O......&88888888*..8888888888888*%O...O*88888O..nxxxxmMm0....                            ",
"                     .............888888888..&888888888888888888888888%..eMMMMMMMMM0....                           ",
"                      ............&88888888O..*8**8888888888888888888*..*MMMMMMMMMMx....                           ",
"                       ............*88888888........%8888888888888888%.@mMMMMMMMMMM4....                           ",
"                          ..   .....%8888888*.........O88888888888888*+xMMMMMMMMMMe....                            ",
"                              ........%8888888%O*8*%....O*888*O...O%%..4exxxxxxe9O.....                            ",
"                            ............*888888888&...................................                             ",
"                           ..............88888*%O........................++++o.......                              ",
"                          .......+--$....O888...........................5pppp+......       .....                   ",
"                         ......=ypppp$.....%O.........  ........  .....tpppp5.....      ..........                 ",
"                        .....otppppppp+......xmM0....             ....-pppppo....     .............                ",
"                       .....oyppppppppyo..@%0MMMx....             ....ypppp:.....    ...............               ",
"                       ....oyppppppppppyo.OxMMMMr....            ....+ppppp.....    .......*ere%.....              ",
"                      .....yppppppy;----=...0mMn@....            ....-ppppt....    ......wbNNNNN8....              ",
"                      ....5pppppp$..................             ....-pppp5....   .....OxNNNNNNNN*....             ",
"                     ....+pppppp$...................             ....-pppp5....  .....ObNNNNNNNNeO....             ",
"                     ....:ppppp5...................              ....=ppppp..........%bNNNNNNNx%......             ",
"                     ....yppppp+.................                ....+ppppp;........*NNNNNNNb*.......              ",
"                     ....pppppy........                           ....yppppp+......*NNNNNNNw........               ",
"                     ....ppppp:............                       ....:pppppyo....ObNNNNNeO.......                 ",
"                     ....55-=+...............                     ....+ppppppyo..ObNNNNx%........                  ",
"                     .........................                     ....5ppppppo..xNNNx*........                    ",
"                    .......O%8wwwwwwww*O.......                    .....ypppp-..eNNbw........                      ",
"                   .....OebNNNNNNNNNNNNNbeO.....                    ....oyppy..*NNw........                        ",
"                   .....O8rNNNNNNNNNNNNNNNb*.....                   .....oyp5..xeO........                         ",
"                   .........*exNNNNNNNNNNNNNw....                    ......++..O........                           ",
"                    ...........O8rNNNNNNNNNNb....                     ................                             ",
"                     ..............*wxNNNNNNNO...                      .............                               ",
"                        ..............O*ebNNN%...                       ..........                                 ",
"                            ..............O8e....                          .....                                   ",
"                               ..................                                                                  ",
"                                   ..............                                                                  ",
"                                       .........                                                                   ",
"                                          .....                                                                    ",
"                                                                                                                   "
};
